# xmcd
#
# Track frame offsets:
# 150
# 14692
# 27264
# 42806
# 51970
# 66795
# 75767
# 90465
# 102067
# 116781
# 132880
# 147385
# 159857
# 176260
# 194426
#
# Disc length: 2807 seconds
#
#
# Revision: 0
# Processed by: cddbd v1.5PL3 Copyright (c) Steve Scherf et al.
# Submitted via: FreeRIP 2.53 
#
DISCID=ba0af50f
DTITLE=Prairie Wind - He Holds Tomorrow
DYEAR=1900
DGENRE=Bluegrass Gospel
TTITLE0=Cry From The Cross
TTITLE1=I'm Not Perfect
TTITLE2=Zion's Hill
TTITLE3=Little Gran of Sand
TTITLE4=Send Your Best Angel
TTITLE5=Look For Me
TTITLE6=Paul's Ministry
TTITLE7=What Kind of Man
TTITLE8=Angel Band
TTITLE9=The Love of God
TTITLE10=Peter Do You Love Me
TTITLE11=Will He Wait a Little Longer
TTITLE12=White Dove
TTITLE13=Down On My Knees
TTITLE14=He Holds Tomorrow
EXTD=
EXTT0=
EXTT1=
EXTT2=
EXTT3=
EXTT4=
EXTT5=
EXTT6=
EXTT7=
EXTT8=
EXTT9=
EXTT10=
EXTT11=
EXTT12=
EXTT13=
EXTT14=
PLAYORDER=
